<?xml version="1.0" encoding="UTF-8"?>
<svg xmlns="http://www.w3.org/2000/svg" width="1000" height="1000" viewBox="-0.600000 -0.900000 7.200000 10.500000">
<line x1="0.000000" y1="9.000000" x2="0.000000" y2="0.000000" stroke="black" stroke-width="0.040000"/>
<line x1="0.000000" y1="0.000000" x2="6.000000" y2="0.000000" stroke="black" stroke-width="0.040000"/>
<line x1="6.000000" y1="0.000000" x2="6.000000" y2="1.000000" stroke="black" stroke-width="0.040000"/>
<line x1="6.000000" y1="1.000000" x2="1.000000" y2="1.000000" stroke="black" stroke-width="0.040000"/>
<line x1="1.000000" y1="1.000000" x2="1.000000" y2="4.000000" stroke="black" stroke-width="0.040000"/>
<line x1="1.000000" y1="4.000000" x2="5.000000" y2="4.000000" stroke="black" stroke-width="0.040000"/>
<line x1="5.000000" y1="4.000000" x2="5.000000" y2="5.000000" stroke="black" stroke-width="0.040000"/>
<line x1="5.000000" y1="5.000000" x2="1.000000" y2="5.000000" stroke="black" stroke-width="0.040000"/>
<line x1="1.000000" y1="5.000000" x2="1.000000" y2="8.000000" stroke="black" stroke-width="0.040000"/>
<line x1="1.000000" y1="8.000000" x2="6.000000" y2="8.000000" stroke="black" stroke-width="0.040000"/>
<line x1="6.000000" y1="8.000000" x2="6.000000" y2="9.000000" stroke="black" stroke-width="0.040000"/>
<line x1="6.000000" y1="9.000000" x2="0.000000" y2="9.000000" stroke="black" stroke-width="0.040000"/>
<circle cx="1.833333" cy="4.500000" r="0.040000" fill="purple"/><line x1="1.833333" y1="4.500000" x2="1.833333" y2="4.500000" stroke="red" stroke-width="0.020000"/>
<circle cx="1.833333" cy="4.500000" r="0.040000" fill="purple"/><line x1="1.833333" y1="4.500000" x2="1.833333" y2="4.500000" stroke="red" stroke-width="0.020000"/>
<circle cx="1.833333" cy="4.500000" r="0.040000" fill="purple"/><line x1="1.833333" y1="4.500000" x2="1.833333" y2="4.500000" stroke="red" stroke-width="0.020000"/>
<circle cx="1.833333" cy="4.500000" r="0.040000" fill="purple"/><line x1="1.833333" y1="4.500000" x2="1.833333" y2="4.500000" stroke="red" stroke-width="0.020000"/>
<circle cx="1.833333" cy="4.500000" r="0.040000" fill="purple"/><line x1="1.833333" y1="4.500000" x2="1.833333" y2="4.500000" stroke="red" stroke-width="0.020000"/>
<circle cx="1.833333" cy="4.500000" r="0.040000" fill="purple"/><line x1="1.833333" y1="4.500000" x2="1.833333" y2="4.500000" stroke="red" stroke-width="0.020000"/>
<circle cx="1.833333" cy="4.500000" r="0.040000" fill="purple"/><line x1="1.833333" y1="4.500000" x2="1.816136" y2="4.576936" stroke="red" stroke-width="0.020000"/>
<circle cx="1.816136" cy="4.576936" r="0.040000" fill="purple"/><line x1="1.816136" y1="4.576936" x2="1.733061" y2="4.900494" stroke="red" stroke-width="0.020000"/>
<circle cx="1.733061" cy="4.900494" r="0.040000" fill="purple"/><line x1="1.733061" y1="4.900494" x2="1.675785" y2="5.097638" stroke="red" stroke-width="0.020000"/>
<circle cx="1.675785" cy="5.097638" r="0.040000" fill="purple"/><line x1="1.675785" y1="5.097638" x2="1.638041" y2="5.213800" stroke="red" stroke-width="0.020000"/>
<circle cx="1.638041" cy="5.213800" r="0.040000" fill="purple"/><line x1="1.638041" y1="5.213800" x2="1.611107" y2="5.288615" stroke="red" stroke-width="0.020000"/>
<circle cx="1.611107" cy="5.288615" r="0.040000" fill="purple"/><line x1="1.611107" y1="5.288615" x2="1.590825" y2="5.339841" stroke="red" stroke-width="0.020000"/>
<circle cx="1.590825" cy="5.339841" r="0.040000" fill="purple"/><line x1="1.590825" y1="5.339841" x2="1.624844" y2="5.261227" stroke="red" stroke-width="0.020000"/>
<circle cx="1.624844" cy="5.261227" r="0.040000" fill="purple"/><line x1="1.624844" y1="5.261227" x2="1.723526" y2="5.051517" stroke="red" stroke-width="0.020000"/>
<circle cx="1.723526" cy="5.051517" r="0.040000" fill="purple"/><line x1="1.723526" y1="5.051517" x2="1.821599" y2="4.859038" stroke="red" stroke-width="0.020000"/>
<circle cx="1.821599" cy="4.859038" r="0.040000" fill="purple"/><line x1="1.821599" y1="4.859038" x2="1.918887" y2="4.682071" stroke="red" stroke-width="0.020000"/>
<circle cx="1.918887" cy="4.682071" r="0.040000" fill="purple"/><line x1="1.918887" y1="4.682071" x2="2.015409" y2="4.518862" stroke="red" stroke-width="0.020000"/>
<circle cx="2.015409" cy="4.518862" r="0.040000" fill="purple"/><line x1="2.015409" y1="4.518862" x2="2.111208" y2="4.367907" stroke="red" stroke-width="0.020000"/>
<circle cx="2.111208" cy="4.367907" r="0.040000" fill="purple"/><line x1="2.111208" y1="4.367907" x2="2.206345" y2="4.227917" stroke="red" stroke-width="0.020000"/>
<circle cx="2.206345" cy="4.227917" r="0.040000" fill="purple"/><line x1="2.206345" y1="4.227917" x2="2.300898" y2="4.097776" stroke="red" stroke-width="0.020000"/>
<circle cx="2.300898" cy="4.097776" r="0.040000" fill="purple"/><line x1="2.300898" y1="4.097776" x2="2.394956" y2="3.976517" stroke="red" stroke-width="0.020000"/>
<circle cx="2.394956" cy="3.976517" r="0.040000" fill="purple"/><line x1="2.394956" y1="3.976517" x2="2.488616" y2="3.863302" stroke="red" stroke-width="0.020000"/>
<circle cx="2.488616" cy="3.863302" r="0.040000" fill="purple"/><line x1="2.488616" y1="3.863302" x2="2.548169" y2="3.795752" stroke="red" stroke-width="0.020000"/>
<circle cx="2.548169" cy="3.795752" r="0.040000" fill="purple"/><line x1="2.548169" y1="3.795752" x2="2.389017" y2="3.965231" stroke="red" stroke-width="0.020000"/>
<circle cx="2.389017" cy="3.965231" r="0.040000" fill="purple"/><line x1="2.389017" y1="3.965231" x2="2.141837" y2="4.212412" stroke="red" stroke-width="0.020000"/>
<circle cx="2.141837" cy="4.212412" r="0.040000" fill="purple"/><line x1="2.141837" y1="4.212412" x2="1.808652" y2="4.525293" stroke="red" stroke-width="0.020000"/>
<circle cx="1.808652" cy="4.525293" r="0.040000" fill="purple"/><line x1="1.808652" y1="4.525293" x2="1.368221" y2="4.913585" stroke="red" stroke-width="0.020000"/>
<circle cx="1.368221" cy="4.913585" r="0.040000" fill="purple"/><line x1="1.368221" y1="4.913585" x2="1.270499" y2="4.994428" stroke="red" stroke-width="0.020000"/>
<circle cx="1.270499" cy="4.994428" r="0.040000" fill="purple"/><line x1="1.270499" y1="4.994428" x2="1.315452" y2="4.959559" stroke="red" stroke-width="0.020000"/>
<circle cx="1.315452" cy="4.959559" r="0.040000" fill="purple"/><line x1="1.315452" y1="4.959559" x2="1.362099" y2="4.925668" stroke="red" stroke-width="0.020000"/>
<circle cx="1.362099" cy="4.925668" r="0.040000" fill="purple"/><line x1="1.362099" y1="4.925668" x2="1.410579" y2="4.892721" stroke="red" stroke-width="0.020000"/>
<circle cx="1.410579" cy="4.892721" r="0.040000" fill="purple"/><line x1="1.410579" y1="4.892721" x2="1.461047" y2="4.860693" stroke="red" stroke-width="0.020000"/>
<circle cx="1.461047" cy="4.860693" r="0.040000" fill="purple"/><line x1="1.461047" y1="4.860693" x2="1.513674" y2="4.829570" stroke="red" stroke-width="0.020000"/>
<circle cx="1.513674" cy="4.829570" r="0.040000" fill="purple"/><line x1="1.513674" y1="4.829570" x2="1.568653" y2="4.799345" stroke="red" stroke-width="0.020000"/>
<circle cx="1.568653" cy="4.799345" r="0.040000" fill="purple"/><line x1="1.568653" y1="4.799345" x2="1.626200" y2="4.770023" stroke="red" stroke-width="0.020000"/>
<circle cx="1.626200" cy="4.770023" r="0.040000" fill="purple"/><line x1="1.626200" y1="4.770023" x2="1.686558" y2="4.741620" stroke="red" stroke-width="0.020000"/>
<circle cx="1.686558" cy="4.741620" r="0.040000" fill="purple"/><line x1="1.686558" y1="4.741620" x2="1.750000" y2="4.714167" stroke="red" stroke-width="0.020000"/>
<circle cx="1.750000" cy="4.714167" r="0.040000" fill="purple"/><line x1="1.750000" y1="4.714167" x2="1.820278" y2="4.686342" stroke="red" stroke-width="0.020000"/>
<circle cx="1.820278" cy="4.686342" r="0.040000" fill="purple"/><line x1="1.820278" y1="4.686342" x2="1.911111" y2="4.653640" stroke="red" stroke-width="0.020000"/>
<circle cx="1.911111" cy="4.653640" r="0.040000" fill="purple"/><line x1="1.911111" y1="4.653640" x2="2.016251" y2="4.619478" stroke="red" stroke-width="0.020000"/>
<circle cx="2.016251" cy="4.619478" r="0.040000" fill="purple"/><line x1="2.016251" y1="4.619478" x2="2.138311" y2="4.584016" stroke="red" stroke-width="0.020000"/>
<circle cx="2.138311" cy="4.584016" r="0.040000" fill="purple"/><line x1="2.138311" y1="4.584016" x2="2.282873" y2="4.546899" stroke="red" stroke-width="0.020000"/>
<circle cx="2.282873" cy="4.546899" r="0.040000" fill="purple"/><line x1="2.282873" y1="4.546899" x2="2.450106" y2="4.509518" stroke="red" stroke-width="0.020000"/>
<circle cx="2.450106" cy="4.509518" r="0.040000" fill="purple"/><line x1="2.450106" y1="4.509518" x2="2.500000" y2="4.500000" stroke="red" stroke-width="0.020000"/>
<circle cx="2.500000" cy="4.500000" r="0.040000" fill="purple"/><line x1="2.500000" y1="4.500000" x2="2.500000" y2="4.500000" stroke="red" stroke-width="0.020000"/>
<circle cx="2.500000" cy="4.500000" r="0.040000" fill="purple"/><line x1="2.500000" y1="4.500000" x2="2.500000" y2="4.500000" stroke="red" stroke-width="0.020000"/>
<circle cx="2.500000" cy="4.500000" r="0.040000" fill="purple"/><line x1="2.500000" y1="4.500000" x2="2.500000" y2="4.500000" stroke="red" stroke-width="0.020000"/>
<circle cx="2.500000" cy="4.500000" r="0.040000" fill="purple"/><line x1="2.500000" y1="4.500000" x2="2.500000" y2="4.500000" stroke="red" stroke-width="0.020000"/>
<circle cx="2.500000" cy="4.500000" r="0.040000" fill="purple"/><line x1="2.500000" y1="4.500000" x2="2.500000" y2="4.500000" stroke="red" stroke-width="0.020000"/>
<circle cx="2.500000" cy="4.500000" r="0.040000" fill="purple"/><line x1="2.500000" y1="4.500000" x2="2.500000" y2="4.500000" stroke="red" stroke-width="0.020000"/>
<circle cx="2.500000" cy="4.500000" r="0.040000" fill="purple"/><line x1="2.500000" y1="4.500000" x2="2.500000" y2="4.500000" stroke="red" stroke-width="0.020000"/>
<circle cx="2.500000" cy="4.500000" r="0.040000" fill="purple"/><line x1="2.500000" y1="4.500000" x2="2.500000" y2="4.500000" stroke="red" stroke-width="0.020000"/>
<circle cx="2.500000" cy="4.500000" r="0.040000" fill="purple"/><line x1="2.500000" y1="4.500000" x2="2.500000" y2="4.500000" stroke="red" stroke-width="0.020000"/>
<circle cx="2.500000" cy="4.500000" r="0.040000" fill="purple"/><line x1="2.500000" y1="4.500000" x2="2.500000" y2="4.500000" stroke="red" stroke-width="0.020000"/>
<circle cx="2.500000" cy="4.500000" r="0.040000" fill="purple"/><line x1="2.500000" y1="4.500000" x2="2.500000" y2="4.500000" stroke="red" stroke-width="0.020000"/>
<circle cx="2.500000" cy="4.500000" r="0.040000" fill="purple"/><line x1="2.500000" y1="4.500000" x2="2.450106" y2="4.490482" stroke="red" stroke-width="0.020000"/>
<circle cx="2.450106" cy="4.490482" r="0.040000" fill="purple"/><line x1="2.450106" y1="4.490482" x2="2.282873" y2="4.453101" stroke="red" stroke-width="0.020000"/>
<circle cx="2.282873" cy="4.453101" r="0.040000" fill="purple"/><line x1="2.282873" y1="4.453101" x2="2.138311" y2="4.415984" stroke="red" stroke-width="0.020000"/>
<circle cx="2.138311" cy="4.415984" r="0.040000" fill="purple"/><line x1="2.138311" y1="4.415984" x2="2.016251" y2="4.380522" stroke="red" stroke-width="0.020000"/>
<circle cx="2.016251" cy="4.380522" r="0.040000" fill="purple"/><line x1="2.016251" y1="4.380522" x2="1.911111" y2="4.346360" stroke="red" stroke-width="0.020000"/>
<circle cx="1.911111" cy="4.346360" r="0.040000" fill="purple"/><line x1="1.911111" y1="4.346360" x2="1.820278" y2="4.313658" stroke="red" stroke-width="0.020000"/>
<circle cx="1.820278" cy="4.313658" r="0.040000" fill="purple"/><line x1="1.820278" y1="4.313658" x2="1.750000" y2="4.285833" stroke="red" stroke-width="0.020000"/>
<circle cx="1.750000" cy="4.285833" r="0.040000" fill="purple"/><line x1="1.750000" y1="4.285833" x2="1.686558" y2="4.258380" stroke="red" stroke-width="0.020000"/>
<circle cx="1.686558" cy="4.258380" r="0.040000" fill="purple"/><line x1="1.686558" y1="4.258380" x2="1.626200" y2="4.229977" stroke="red" stroke-width="0.020000"/>
<circle cx="1.626200" cy="4.229977" r="0.040000" fill="purple"/><line x1="1.626200" y1="4.229977" x2="1.568653" y2="4.200655" stroke="red" stroke-width="0.020000"/>
<circle cx="1.568653" cy="4.200655" r="0.040000" fill="purple"/><line x1="1.568653" y1="4.200655" x2="1.513674" y2="4.170430" stroke="red" stroke-width="0.020000"/>
<circle cx="1.513674" cy="4.170430" r="0.040000" fill="purple"/><line x1="1.513674" y1="4.170430" x2="1.461047" y2="4.139307" stroke="red" stroke-width="0.020000"/>
<circle cx="1.461047" cy="4.139307" r="0.040000" fill="purple"/><line x1="1.461047" y1="4.139307" x2="1.410579" y2="4.107279" stroke="red" stroke-width="0.020000"/>
<circle cx="1.410579" cy="4.107279" r="0.040000" fill="purple"/><line x1="1.410579" y1="4.107279" x2="1.362099" y2="4.074332" stroke="red" stroke-width="0.020000"/>
<circle cx="1.362099" cy="4.074332" r="0.040000" fill="purple"/><line x1="1.362099" y1="4.074332" x2="1.315452" y2="4.040441" stroke="red" stroke-width="0.020000"/>
<circle cx="1.315452" cy="4.040441" r="0.040000" fill="purple"/><line x1="1.315452" y1="4.040441" x2="1.270499" y2="4.005572" stroke="red" stroke-width="0.020000"/>
<circle cx="1.270499" cy="4.005572" r="0.040000" fill="purple"/><line x1="1.270499" y1="4.005572" x2="1.368221" y2="4.086415" stroke="red" stroke-width="0.020000"/>
<circle cx="1.368221" cy="4.086415" r="0.040000" fill="purple"/><line x1="1.368221" y1="4.086415" x2="1.808652" y2="4.474707" stroke="red" stroke-width="0.020000"/>
<circle cx="1.808652" cy="4.474707" r="0.040000" fill="purple"/><line x1="1.808652" y1="4.474707" x2="2.141837" y2="4.787588" stroke="red" stroke-width="0.020000"/>
<circle cx="2.141837" cy="4.787588" r="0.040000" fill="purple"/><line x1="2.141837" y1="4.787588" x2="2.389017" y2="5.034769" stroke="red" stroke-width="0.020000"/>
<circle cx="2.389017" cy="5.034769" r="0.040000" fill="purple"/><line x1="2.389017" y1="5.034769" x2="2.548169" y2="5.204248" stroke="red" stroke-width="0.020000"/>
<circle cx="2.548169" cy="5.204248" r="0.040000" fill="purple"/><line x1="2.548169" y1="5.204248" x2="2.488616" y2="5.136698" stroke="red" stroke-width="0.020000"/>
<circle cx="2.488616" cy="5.136698" r="0.040000" fill="purple"/><line x1="2.488616" y1="5.136698" x2="2.394956" y2="5.023483" stroke="red" stroke-width="0.020000"/>
<circle cx="2.394956" cy="5.023483" r="0.040000" fill="purple"/><line x1="2.394956" y1="5.023483" x2="2.300898" y2="4.902224" stroke="red" stroke-width="0.020000"/>
<circle cx="2.300898" cy="4.902224" r="0.040000" fill="purple"/><line x1="2.300898" y1="4.902224" x2="2.206345" y2="4.772083" stroke="red" stroke-width="0.020000"/>
<circle cx="2.206345" cy="4.772083" r="0.040000" fill="purple"/><line x1="2.206345" y1="4.772083" x2="2.111208" y2="4.632093" stroke="red" stroke-width="0.020000"/>
<circle cx="2.111208" cy="4.632093" r="0.040000" fill="purple"/><line x1="2.111208" y1="4.632093" x2="2.015409" y2="4.481138" stroke="red" stroke-width="0.020000"/>
<circle cx="2.015409" cy="4.481138" r="0.040000" fill="purple"/><line x1="2.015409" y1="4.481138" x2="1.918887" y2="4.317929" stroke="red" stroke-width="0.020000"/>
<circle cx="1.918887" cy="4.317929" r="0.040000" fill="purple"/><line x1="1.918887" y1="4.317929" x2="1.821599" y2="4.140962" stroke="red" stroke-width="0.020000"/>
<circle cx="1.821599" cy="4.140962" r="0.040000" fill="purple"/><line x1="1.821599" y1="4.140962" x2="1.723526" y2="3.948483" stroke="red" stroke-width="0.020000"/>
<circle cx="1.723526" cy="3.948483" r="0.040000" fill="purple"/><line x1="1.723526" y1="3.948483" x2="1.624844" y2="3.738773" stroke="red" stroke-width="0.020000"/>
<circle cx="1.624844" cy="3.738773" r="0.040000" fill="purple"/><line x1="1.624844" y1="3.738773" x2="1.590825" y2="3.660159" stroke="red" stroke-width="0.020000"/>
<circle cx="1.590825" cy="3.660159" r="0.040000" fill="purple"/><line x1="1.590825" y1="3.660159" x2="1.611107" y2="3.711385" stroke="red" stroke-width="0.020000"/>
<circle cx="1.611107" cy="3.711385" r="0.040000" fill="purple"/><line x1="1.611107" y1="3.711385" x2="1.638041" y2="3.786200" stroke="red" stroke-width="0.020000"/>
<circle cx="1.638041" cy="3.786200" r="0.040000" fill="purple"/><line x1="1.638041" y1="3.786200" x2="1.675785" y2="3.902362" stroke="red" stroke-width="0.020000"/>
<circle cx="1.675785" cy="3.902362" r="0.040000" fill="purple"/><line x1="1.675785" y1="3.902362" x2="1.733061" y2="4.099506" stroke="red" stroke-width="0.020000"/>
<circle cx="1.733061" cy="4.099506" r="0.040000" fill="purple"/><line x1="1.733061" y1="4.099506" x2="1.816136" y2="4.423064" stroke="red" stroke-width="0.020000"/>
<circle cx="1.816136" cy="4.423064" r="0.040000" fill="purple"/><line x1="1.816136" y1="4.423064" x2="1.833333" y2="4.500000" stroke="red" stroke-width="0.020000"/>
<circle cx="1.833333" cy="4.500000" r="0.040000" fill="purple"/><line x1="1.833333" y1="4.500000" x2="1.833333" y2="4.500000" stroke="red" stroke-width="0.020000"/>
<circle cx="1.833333" cy="4.500000" r="0.040000" fill="purple"/><line x1="1.833333" y1="4.500000" x2="1.833333" y2="4.500000" stroke="red" stroke-width="0.020000"/>
<circle cx="1.833333" cy="4.500000" r="0.040000" fill="purple"/><line x1="1.833333" y1="4.500000" x2="1.833333" y2="4.500000" stroke="red" stroke-width="0.020000"/>
<circle cx="1.833333" cy="4.500000" r="0.040000" fill="purple"/><line x1="1.833333" y1="4.500000" x2="1.833333" y2="4.500000" stroke="red" stroke-width="0.020000"/>
<circle cx="1.833333" cy="4.500000" r="0.040000" fill="purple"/><line x1="1.833333" y1="4.500000" x2="1.833333" y2="4.500000" stroke="red" stroke-width="0.020000"/>
<circle cx="1.833333" cy="4.500000" r="0.040000" fill="purple"/><line x1="1.833333" y1="4.500000" x2="1.833333" y2="4.500000" stroke="red" stroke-width="0.020000"/>
<circle cx="1.833333" cy="4.500000" r="0.040000" fill="purple"/><line x1="1.833333" y1="4.500000" x2="1.833333" y2="4.500000" stroke="red" stroke-width="0.020000"/>
</svg>