<?xml version="1.0" encoding="UTF-8"?>
<svg xmlns="http://www.w3.org/2000/svg" width="1000" height="1000" viewBox="-0.700000 -0.700000 7.700000 7.700000">
<line x1="0.000000" y1="7.000000" x2="0.000000" y2="0.000000" stroke="black" stroke-width="0.040000"/>
<line x1="0.000000" y1="0.000000" x2="7.000000" y2="0.000000" stroke="black" stroke-width="0.040000"/>
<line x1="7.000000" y1="0.000000" x2="7.000000" y2="1.000000" stroke="black" stroke-width="0.040000"/>
<line x1="7.000000" y1="1.000000" x2="1.000000" y2="1.000000" stroke="black" stroke-width="0.040000"/>
<line x1="1.000000" y1="1.000000" x2="1.000000" y2="7.000000" stroke="black" stroke-width="0.040000"/>
<line x1="1.000000" y1="7.000000" x2="0.000000" y2="7.000000" stroke="black" stroke-width="0.040000"/>
<line x1="0.928571" y1="3.503809" x2="0.918278" y2="3.831336" stroke="red" stroke-width="0.020000"/>
<line x1="0.918278" y1="3.831336" x2="0.904080" y2="4.057022" stroke="red" stroke-width="0.020000"/>
<line x1="0.904080" y1="4.057022" x2="0.896256" y2="4.139783" stroke="red" stroke-width="0.020000"/>
<line x1="0.896256" y1="4.139783" x2="0.891168" y2="4.180058" stroke="red" stroke-width="0.020000"/>
<line x1="0.891168" y1="4.180058" x2="0.887560" y2="4.202837" stroke="red" stroke-width="0.020000"/>
<line x1="0.887560" y1="4.202837" x2="0.884855" y2="4.217020" stroke="red" stroke-width="0.020000"/>
<line x1="0.884855" y1="4.217020" x2="0.882744" y2="4.226465" stroke="red" stroke-width="0.020000"/>
<line x1="0.882744" y1="4.226465" x2="0.881046" y2="4.233079" stroke="red" stroke-width="0.020000"/>
<line x1="0.881046" y1="4.233079" x2="0.880659" y2="4.234411" stroke="red" stroke-width="0.020000"/>
<line x1="0.880659" y1="4.234411" x2="0.921971" y2="4.107263" stroke="red" stroke-width="0.020000"/>
<line x1="0.921971" y1="4.107263" x2="0.988034" y2="3.923768" stroke="red" stroke-width="0.020000"/>
<line x1="0.988034" y1="3.923768" x2="1.056833" y2="3.750000" stroke="red" stroke-width="0.020000"/>
<line x1="1.056833" y1="3.750000" x2="1.128213" y2="3.585051" stroke="red" stroke-width="0.020000"/>
<line x1="1.128213" y1="3.585051" x2="1.202059" y2="3.428120" stroke="red" stroke-width="0.020000"/>
<line x1="1.202059" y1="3.428120" x2="1.278296" y2="3.278497" stroke="red" stroke-width="0.020000"/>
<line x1="1.278296" y1="3.278497" x2="1.356881" y2="3.135551" stroke="red" stroke-width="0.020000"/>
<line x1="1.356881" y1="3.135551" x2="1.437802" y2="2.998721" stroke="red" stroke-width="0.020000"/>
<line x1="1.437802" y1="2.998721" x2="1.521074" y2="2.867506" stroke="red" stroke-width="0.020000"/>
<line x1="1.521074" y1="2.867506" x2="1.606737" y2="2.741457" stroke="red" stroke-width="0.020000"/>
<line x1="1.606737" y1="2.741457" x2="1.694854" y2="2.620174" stroke="red" stroke-width="0.020000"/>
<line x1="1.694854" y1="2.620174" x2="1.785512" y2="2.503298" stroke="red" stroke-width="0.020000"/>
<line x1="1.785512" y1="2.503298" x2="1.878820" y2="2.390508" stroke="red" stroke-width="0.020000"/>
<line x1="1.878820" y1="2.390508" x2="1.974909" y2="2.281517" stroke="red" stroke-width="0.020000"/>
<line x1="1.974909" y1="2.281517" x2="2.073932" y2="2.176068" stroke="red" stroke-width="0.020000"/>
<line x1="2.073932" y1="2.176068" x2="2.176068" y2="2.073932" stroke="red" stroke-width="0.020000"/>
<line x1="2.176068" y1="2.073932" x2="2.281517" y2="1.974909" stroke="red" stroke-width="0.020000"/>
<line x1="2.281517" y1="1.974909" x2="2.390508" y2="1.878820" stroke="red" stroke-width="0.020000"/>
<line x1="2.390508" y1="1.878820" x2="2.503298" y2="1.785512" stroke="red" stroke-width="0.020000"/>
<line x1="2.503298" y1="1.785512" x2="2.620174" y2="1.694854" stroke="red" stroke-width="0.020000"/>
<line x1="2.620174" y1="1.694854" x2="2.741457" y2="1.606737" stroke="red" stroke-width="0.020000"/>
<line x1="2.741457" y1="1.606737" x2="2.867506" y2="1.521074" stroke="red" stroke-width="0.020000"/>
<line x1="2.867506" y1="1.521074" x2="2.998721" y2="1.437802" stroke="red" stroke-width="0.020000"/>
<line x1="2.998721" y1="1.437802" x2="3.135551" y2="1.356881" stroke="red" stroke-width="0.020000"/>
<line x1="3.135551" y1="1.356881" x2="3.278497" y2="1.278296" stroke="red" stroke-width="0.020000"/>
<line x1="3.278497" y1="1.278296" x2="3.428120" y2="1.202059" stroke="red" stroke-width="0.020000"/>
<line x1="3.428120" y1="1.202059" x2="3.585051" y2="1.128213" stroke="red" stroke-width="0.020000"/>
<line x1="3.585051" y1="1.128213" x2="3.750000" y2="1.056833" stroke="red" stroke-width="0.020000"/>
<line x1="3.750000" y1="1.056833" x2="3.923768" y2="0.988034" stroke="red" stroke-width="0.020000"/>
<line x1="3.923768" y1="0.988034" x2="4.107263" y2="0.921971" stroke="red" stroke-width="0.020000"/>
<line x1="4.107263" y1="0.921971" x2="4.234411" y2="0.880659" stroke="red" stroke-width="0.020000"/>
<line x1="4.234411" y1="0.880659" x2="4.233079" y2="0.881046" stroke="red" stroke-width="0.020000"/>
<line x1="4.233079" y1="0.881046" x2="4.226465" y2="0.882744" stroke="red" stroke-width="0.020000"/>
<line x1="4.226465" y1="0.882744" x2="4.217020" y2="0.884855" stroke="red" stroke-width="0.020000"/>
<line x1="4.217020" y1="0.884855" x2="4.202837" y2="0.887560" stroke="red" stroke-width="0.020000"/>
<line x1="4.202837" y1="0.887560" x2="4.180058" y2="0.891168" stroke="red" stroke-width="0.020000"/>
<line x1="4.180058" y1="0.891168" x2="4.139783" y2="0.896256" stroke="red" stroke-width="0.020000"/>
<line x1="4.139783" y1="0.896256" x2="4.057022" y2="0.904080" stroke="red" stroke-width="0.020000"/>
<line x1="4.057022" y1="0.904080" x2="3.831336" y2="0.918278" stroke="red" stroke-width="0.020000"/>
<line x1="3.831336" y1="0.918278" x2="3.503809" y2="0.928571" stroke="red" stroke-width="0.020000"/>
<line x1="3.503809" y1="0.928571" x2="3.368074" y2="0.928571" stroke="red" stroke-width="0.020000"/>
<line x1="3.368074" y1="0.928571" x2="2.335889" y2="0.896134" stroke="red" stroke-width="0.020000"/>
<line x1="2.335889" y1="0.896134" x2="1.791210" y2="0.861865" stroke="red" stroke-width="0.020000"/>
<line x1="1.791210" y1="0.861865" x2="1.508564" y2="0.835147" stroke="red" stroke-width="0.020000"/>
<line x1="1.508564" y1="0.835147" x2="1.327309" y2="0.812250" stroke="red" stroke-width="0.020000"/>
<line x1="1.327309" y1="0.812250" x2="1.197983" y2="0.791766" stroke="red" stroke-width="0.020000"/>
<line x1="1.197983" y1="0.791766" x2="1.099449" y2="0.772970" stroke="red" stroke-width="0.020000"/>
<line x1="1.099449" y1="0.772970" x2="1.020932" y2="0.755419" stroke="red" stroke-width="0.020000"/>
<line x1="1.020932" y1="0.755419" x2="0.956282" y2="0.738820" stroke="red" stroke-width="0.020000"/>
<line x1="0.956282" y1="0.738820" x2="0.901695" y2="0.722961" stroke="red" stroke-width="0.020000"/>
<line x1="0.901695" y1="0.722961" x2="0.854675" y2="0.707683" stroke="red" stroke-width="0.020000"/>
<line x1="0.854675" y1="0.707683" x2="0.813506" y2="0.692862" stroke="red" stroke-width="0.020000"/>
<line x1="0.813506" y1="0.692862" x2="0.776966" y2="0.678395" stroke="red" stroke-width="0.020000"/>
<line x1="0.776966" y1="0.678395" x2="0.744155" y2="0.664196" stroke="red" stroke-width="0.020000"/>
<line x1="0.744155" y1="0.664196" x2="0.714394" y2="0.650192" stroke="red" stroke-width="0.020000"/>
<line x1="0.714394" y1="0.650192" x2="0.687160" y2="0.636315" stroke="red" stroke-width="0.020000"/>
<line x1="0.687160" y1="0.636315" x2="0.662042" y2="0.622506" stroke="red" stroke-width="0.020000"/>
<line x1="0.662042" y1="0.622506" x2="0.638711" y2="0.608708" stroke="red" stroke-width="0.020000"/>
<line x1="0.638711" y1="0.608708" x2="0.616900" y2="0.594867" stroke="red" stroke-width="0.020000"/>
<line x1="0.616900" y1="0.594867" x2="0.596391" y2="0.580929" stroke="red" stroke-width="0.020000"/>
<line x1="0.596391" y1="0.580929" x2="0.577000" y2="0.566841" stroke="red" stroke-width="0.020000"/>
<line x1="0.577000" y1="0.566841" x2="0.558574" y2="0.552548" stroke="red" stroke-width="0.020000"/>
<line x1="0.558574" y1="0.552548" x2="0.540982" y2="0.537994" stroke="red" stroke-width="0.020000"/>
<line x1="0.540982" y1="0.537994" x2="0.524110" y2="0.523119" stroke="red" stroke-width="0.020000"/>
<line x1="0.524110" y1="0.523119" x2="0.507859" y2="0.507859" stroke="red" stroke-width="0.020000"/>
<line x1="0.507859" y1="0.507859" x2="0.507859" y2="0.507859" stroke="red" stroke-width="0.020000"/>
<line x1="0.507859" y1="0.507859" x2="0.523119" y2="0.524110" stroke="red" stroke-width="0.020000"/>
<line x1="0.523119" y1="0.524110" x2="0.537994" y2="0.540982" stroke="red" stroke-width="0.020000"/>
<line x1="0.537994" y1="0.540982" x2="0.552548" y2="0.558574" stroke="red" stroke-width="0.020000"/>
<line x1="0.552548" y1="0.558574" x2="0.566841" y2="0.577000" stroke="red" stroke-width="0.020000"/>
<line x1="0.566841" y1="0.577000" x2="0.580929" y2="0.596391" stroke="red" stroke-width="0.020000"/>
<line x1="0.580929" y1="0.596391" x2="0.594867" y2="0.616900" stroke="red" stroke-width="0.020000"/>
<line x1="0.594867" y1="0.616900" x2="0.608708" y2="0.638711" stroke="red" stroke-width="0.020000"/>
<line x1="0.608708" y1="0.638711" x2="0.622506" y2="0.662042" stroke="red" stroke-width="0.020000"/>
<line x1="0.622506" y1="0.662042" x2="0.636315" y2="0.687160" stroke="red" stroke-width="0.020000"/>
<line x1="0.636315" y1="0.687160" x2="0.650192" y2="0.714394" stroke="red" stroke-width="0.020000"/>
<line x1="0.650192" y1="0.714394" x2="0.664196" y2="0.744155" stroke="red" stroke-width="0.020000"/>
<line x1="0.664196" y1="0.744155" x2="0.678395" y2="0.776966" stroke="red" stroke-width="0.020000"/>
<line x1="0.678395" y1="0.776966" x2="0.692862" y2="0.813506" stroke="red" stroke-width="0.020000"/>
<line x1="0.692862" y1="0.813506" x2="0.707683" y2="0.854675" stroke="red" stroke-width="0.020000"/>
<line x1="0.707683" y1="0.854675" x2="0.722961" y2="0.901695" stroke="red" stroke-width="0.020000"/>
<line x1="0.722961" y1="0.901695" x2="0.738820" y2="0.956282" stroke="red" stroke-width="0.020000"/>
<line x1="0.738820" y1="0.956282" x2="0.755419" y2="1.020932" stroke="red" stroke-width="0.020000"/>
<line x1="0.755419" y1="1.020932" x2="0.772970" y2="1.099449" stroke="red" stroke-width="0.020000"/>
<line x1="0.772970" y1="1.099449" x2="0.791766" y2="1.197983" stroke="red" stroke-width="0.020000"/>
<line x1="0.791766" y1="1.197983" x2="0.812250" y2="1.327309" stroke="red" stroke-width="0.020000"/>
<line x1="0.812250" y1="1.327309" x2="0.835147" y2="1.508564" stroke="red" stroke-width="0.020000"/>
<line x1="0.835147" y1="1.508564" x2="0.861865" y2="1.791210" stroke="red" stroke-width="0.020000"/>
<line x1="0.861865" y1="1.791210" x2="0.896134" y2="2.335889" stroke="red" stroke-width="0.020000"/>
<line x1="0.896134" y1="2.335889" x2="0.928571" y2="3.368074" stroke="red" stroke-width="0.020000"/>
<line x1="0.928571" y1="3.368074" x2="0.928571" y2="3.503809" stroke="red" stroke-width="0.020000"/>
</svg>