<?xml version="1.0" encoding="UTF-8"?>
<svg xmlns="http://www.w3.org/2000/svg" width="1000" height="1000" viewBox="-4.532624 -4.565071 8.683282 9.097695">
<line x1="1.000000" y1="0.000000" x2="3.427051" y2="1.763356" stroke="black" stroke-width="0.040000"/>
<line x1="3.427051" y1="1.763356" x2="2.736068" y2="2.714412" stroke="black" stroke-width="0.040000"/>
<line x1="2.736068" y1="2.714412" x2="0.309017" y2="0.951057" stroke="black" stroke-width="0.040000"/>
<line x1="0.309017" y1="0.951057" x2="-0.618034" y2="3.804226" stroke="black" stroke-width="0.040000"/>
<line x1="-0.618034" y1="3.804226" x2="-1.736068" y2="3.440955" stroke="black" stroke-width="0.040000"/>
<line x1="-1.736068" y1="3.440955" x2="-0.809017" y2="0.587785" stroke="black" stroke-width="0.040000"/>
<line x1="-0.809017" y1="0.587785" x2="-3.809017" y2="0.587785" stroke="black" stroke-width="0.040000"/>
<line x1="-3.809017" y1="0.587785" x2="-3.809017" y2="-0.587785" stroke="black" stroke-width="0.040000"/>
<line x1="-3.809017" y1="-0.587785" x2="-0.809017" y2="-0.587785" stroke="black" stroke-width="0.040000"/>
<line x1="-0.809017" y1="-0.587785" x2="-1.736068" y2="-3.440955" stroke="black" stroke-width="0.040000"/>
<line x1="-1.736068" y1="-3.440955" x2="-0.618034" y2="-3.804226" stroke="black" stroke-width="0.040000"/>
<line x1="-0.618034" y1="-3.804226" x2="0.309017" y2="-0.951057" stroke="black" stroke-width="0.040000"/>
<line x1="0.309017" y1="-0.951057" x2="2.736068" y2="-2.714412" stroke="black" stroke-width="0.040000"/>
<line x1="2.736068" y1="-2.714412" x2="3.427051" y2="-1.763356" stroke="black" stroke-width="0.040000"/>
<line x1="3.427051" y1="-1.763356" x2="1.000000" y2="0.000000" stroke="black" stroke-width="0.040000"/>
<line x1="-0.299128" y1="0.136828" x2="-0.307860" y2="0.414689" stroke="red" stroke-width="0.020000"/>
<line x1="-0.307860" y1="0.414689" x2="-0.326177" y2="0.705821" stroke="red" stroke-width="0.020000"/>
<line x1="-0.326177" y1="0.705821" x2="-0.344763" y2="0.902447" stroke="red" stroke-width="0.020000"/>
<line x1="-0.344763" y1="0.902447" x2="-0.355639" y2="0.988539" stroke="red" stroke-width="0.020000"/>
<line x1="-0.355639" y1="0.988539" x2="-0.367865" y2="1.065726" stroke="red" stroke-width="0.020000"/>
<line x1="-0.367865" y1="1.065726" x2="-0.381169" y2="1.135469" stroke="red" stroke-width="0.020000"/>
<line x1="-0.381169" y1="1.135469" x2="-0.395352" y2="1.198921" stroke="red" stroke-width="0.020000"/>
<line x1="-0.395352" y1="1.198921" x2="-0.410267" y2="1.257010" stroke="red" stroke-width="0.020000"/>
<line x1="-0.410267" y1="1.257010" x2="-0.425803" y2="1.310488" stroke="red" stroke-width="0.020000"/>
<line x1="-0.425803" y1="1.310488" x2="-0.425803" y2="1.310488" stroke="red" stroke-width="0.020000"/>
<line x1="-0.425803" y1="1.310488" x2="-0.406939" y2="1.258091" stroke="red" stroke-width="0.020000"/>
<line x1="-0.406939" y1="1.258091" x2="-0.384862" y2="1.202330" stroke="red" stroke-width="0.020000"/>
<line x1="-0.384862" y1="1.202330" x2="-0.359040" y2="1.142659" stroke="red" stroke-width="0.020000"/>
<line x1="-0.359040" y1="1.142659" x2="-0.328810" y2="1.078416" stroke="red" stroke-width="0.020000"/>
<line x1="-0.328810" y1="1.078416" x2="-0.293330" y2="1.008784" stroke="red" stroke-width="0.020000"/>
<line x1="-0.293330" y1="1.008784" x2="-0.251526" y2="0.932742" stroke="red" stroke-width="0.020000"/>
<line x1="-0.251526" y1="0.932742" x2="-0.150989" y2="0.762743" stroke="red" stroke-width="0.020000"/>
<line x1="-0.150989" y1="0.762743" x2="0.005316" y2="0.516446" stroke="red" stroke-width="0.020000"/>
<line x1="0.005316" y1="0.516446" x2="0.161574" y2="0.286520" stroke="red" stroke-width="0.020000"/>
<line x1="0.161574" y1="0.286520" x2="0.322425" y2="0.065127" stroke="red" stroke-width="0.020000"/>
<line x1="0.322425" y1="0.065127" x2="0.492812" y2="-0.154535" stroke="red" stroke-width="0.020000"/>
<line x1="0.492812" y1="-0.154535" x2="0.678754" y2="-0.379299" stroke="red" stroke-width="0.020000"/>
<line x1="0.678754" y1="-0.379299" x2="0.809365" y2="-0.527449" stroke="red" stroke-width="0.020000"/>
<line x1="0.809365" y1="-0.527449" x2="0.868767" y2="-0.590705" stroke="red" stroke-width="0.020000"/>
<line x1="0.868767" y1="-0.590705" x2="0.924027" y2="-0.645965" stroke="red" stroke-width="0.020000"/>
<line x1="0.924027" y1="-0.645965" x2="0.975784" y2="-0.694568" stroke="red" stroke-width="0.020000"/>
<line x1="0.975784" y1="-0.694568" x2="1.024555" y2="-0.737566" stroke="red" stroke-width="0.020000"/>
<line x1="1.024555" y1="-0.737566" x2="1.070765" y2="-0.775794" stroke="red" stroke-width="0.020000"/>
<line x1="1.070765" y1="-0.775794" x2="1.114768" y2="-0.809926" stroke="red" stroke-width="0.020000"/>
<line x1="1.114768" y1="-0.809926" x2="1.114768" y2="-0.809926" stroke="red" stroke-width="0.020000"/>
<line x1="1.114768" y1="-0.809926" x2="1.068708" y2="-0.778624" stroke="red" stroke-width="0.020000"/>
<line x1="1.068708" y1="-0.778624" x2="1.018071" y2="-0.746489" stroke="red" stroke-width="0.020000"/>
<line x1="1.018071" y1="-0.746489" x2="0.962107" y2="-0.713392" stroke="red" stroke-width="0.020000"/>
<line x1="0.962107" y1="-0.713392" x2="0.899890" y2="-0.679187" stroke="red" stroke-width="0.020000"/>
<line x1="0.899890" y1="-0.679187" x2="0.830258" y2="-0.643708" stroke="red" stroke-width="0.020000"/>
<line x1="0.830258" y1="-0.643708" x2="0.751741" y2="-0.606761" stroke="red" stroke-width="0.020000"/>
<line x1="0.751741" y1="-0.606761" x2="0.570481" y2="-0.528323" stroke="red" stroke-width="0.020000"/>
<line x1="0.570481" y1="-0.528323" x2="0.299259" y2="-0.420938" stroke="red" stroke-width="0.020000"/>
<line x1="0.299259" y1="-0.420938" x2="0.037696" y2="-0.326770" stroke="red" stroke-width="0.020000"/>
<line x1="0.037696" y1="-0.326770" x2="-0.222567" y2="-0.242205" stroke="red" stroke-width="0.020000"/>
<line x1="-0.222567" y1="-0.242205" x2="-0.489527" y2="-0.164647" stroke="red" stroke-width="0.020000"/>
<line x1="-0.489527" y1="-0.164647" x2="-0.772070" y2="-0.092102" stroke="red" stroke-width="0.020000"/>
<line x1="-0.772070" y1="-0.092102" x2="-0.964816" y2="-0.049018" stroke="red" stroke-width="0.020000"/>
<line x1="-0.964816" y1="-0.049018" x2="-1.050055" y2="-0.032758" stroke="red" stroke-width="0.020000"/>
<line x1="-1.050055" y1="-0.032758" x2="-1.127242" y2="-0.020532" stroke="red" stroke-width="0.020000"/>
<line x1="-1.127242" y1="-0.020532" x2="-1.197683" y2="-0.011634" stroke="red" stroke-width="0.020000"/>
<line x1="-1.197683" y1="-0.011634" x2="-1.262412" y2="-0.005515" stroke="red" stroke-width="0.020000"/>
<line x1="-1.262412" y1="-0.005515" x2="-1.322267" y2="-0.001749" stroke="red" stroke-width="0.020000"/>
<line x1="-1.322267" y1="-0.001749" x2="-1.377929" y2="-0.000000" stroke="red" stroke-width="0.020000"/>
<line x1="-1.377929" y1="-0.000000" x2="-1.377929" y2="-0.000000" stroke="red" stroke-width="0.020000"/>
<line x1="-1.377929" y1="-0.000000" x2="-1.322267" y2="0.001749" stroke="red" stroke-width="0.020000"/>
<line x1="-1.322267" y1="0.001749" x2="-1.262412" y2="0.005515" stroke="red" stroke-width="0.020000"/>
<line x1="-1.262412" y1="0.005515" x2="-1.197683" y2="0.011634" stroke="red" stroke-width="0.020000"/>
<line x1="-1.197683" y1="0.011634" x2="-1.127242" y2="0.020532" stroke="red" stroke-width="0.020000"/>
<line x1="-1.127242" y1="0.020532" x2="-1.050055" y2="0.032758" stroke="red" stroke-width="0.020000"/>
<line x1="-1.050055" y1="0.032758" x2="-0.964816" y2="0.049018" stroke="red" stroke-width="0.020000"/>
<line x1="-0.964816" y1="0.049018" x2="-0.772070" y2="0.092102" stroke="red" stroke-width="0.020000"/>
<line x1="-0.772070" y1="0.092102" x2="-0.489527" y2="0.164647" stroke="red" stroke-width="0.020000"/>
<line x1="-0.489527" y1="0.164647" x2="-0.222567" y2="0.242205" stroke="red" stroke-width="0.020000"/>
<line x1="-0.222567" y1="0.242205" x2="0.037696" y2="0.326770" stroke="red" stroke-width="0.020000"/>
<line x1="0.037696" y1="0.326770" x2="0.299259" y2="0.420938" stroke="red" stroke-width="0.020000"/>
<line x1="0.299259" y1="0.420938" x2="0.570481" y2="0.528323" stroke="red" stroke-width="0.020000"/>
<line x1="0.570481" y1="0.528323" x2="0.751741" y2="0.606761" stroke="red" stroke-width="0.020000"/>
<line x1="0.751741" y1="0.606761" x2="0.830258" y2="0.643708" stroke="red" stroke-width="0.020000"/>
<line x1="0.830258" y1="0.643708" x2="0.899890" y2="0.679187" stroke="red" stroke-width="0.020000"/>
<line x1="0.899890" y1="0.679187" x2="0.962107" y2="0.713392" stroke="red" stroke-width="0.020000"/>
<line x1="0.962107" y1="0.713392" x2="1.018071" y2="0.746489" stroke="red" stroke-width="0.020000"/>
<line x1="1.018071" y1="0.746489" x2="1.068708" y2="0.778624" stroke="red" stroke-width="0.020000"/>
<line x1="1.068708" y1="0.778624" x2="1.114768" y2="0.809926" stroke="red" stroke-width="0.020000"/>
<line x1="1.114768" y1="0.809926" x2="1.114768" y2="0.809926" stroke="red" stroke-width="0.020000"/>
<line x1="1.114768" y1="0.809926" x2="1.070765" y2="0.775794" stroke="red" stroke-width="0.020000"/>
<line x1="1.070765" y1="0.775794" x2="1.024555" y2="0.737566" stroke="red" stroke-width="0.020000"/>
<line x1="1.024555" y1="0.737566" x2="0.975784" y2="0.694568" stroke="red" stroke-width="0.020000"/>
<line x1="0.975784" y1="0.694568" x2="0.924027" y2="0.645965" stroke="red" stroke-width="0.020000"/>
<line x1="0.924027" y1="0.645965" x2="0.868767" y2="0.590705" stroke="red" stroke-width="0.020000"/>
<line x1="0.868767" y1="0.590705" x2="0.809365" y2="0.527449" stroke="red" stroke-width="0.020000"/>
<line x1="0.809365" y1="0.527449" x2="0.678754" y2="0.379299" stroke="red" stroke-width="0.020000"/>
<line x1="0.678754" y1="0.379299" x2="0.492812" y2="0.154535" stroke="red" stroke-width="0.020000"/>
<line x1="0.492812" y1="0.154535" x2="0.322425" y2="-0.065127" stroke="red" stroke-width="0.020000"/>
<line x1="0.322425" y1="-0.065127" x2="0.161574" y2="-0.286520" stroke="red" stroke-width="0.020000"/>
<line x1="0.161574" y1="-0.286520" x2="0.005316" y2="-0.516446" stroke="red" stroke-width="0.020000"/>
<line x1="0.005316" y1="-0.516446" x2="-0.150989" y2="-0.762743" stroke="red" stroke-width="0.020000"/>
<line x1="-0.150989" y1="-0.762743" x2="-0.251526" y2="-0.932742" stroke="red" stroke-width="0.020000"/>
<line x1="-0.251526" y1="-0.932742" x2="-0.293330" y2="-1.008784" stroke="red" stroke-width="0.020000"/>
<line x1="-0.293330" y1="-1.008784" x2="-0.328810" y2="-1.078416" stroke="red" stroke-width="0.020000"/>
<line x1="-0.328810" y1="-1.078416" x2="-0.359040" y2="-1.142659" stroke="red" stroke-width="0.020000"/>
<line x1="-0.359040" y1="-1.142659" x2="-0.384862" y2="-1.202330" stroke="red" stroke-width="0.020000"/>
<line x1="-0.384862" y1="-1.202330" x2="-0.406939" y2="-1.258091" stroke="red" stroke-width="0.020000"/>
<line x1="-0.406939" y1="-1.258091" x2="-0.425803" y2="-1.310488" stroke="red" stroke-width="0.020000"/>
<line x1="-0.425803" y1="-1.310488" x2="-0.425803" y2="-1.310488" stroke="red" stroke-width="0.020000"/>
<line x1="-0.425803" y1="-1.310488" x2="-0.410267" y2="-1.257010" stroke="red" stroke-width="0.020000"/>
<line x1="-0.410267" y1="-1.257010" x2="-0.395352" y2="-1.198921" stroke="red" stroke-width="0.020000"/>
<line x1="-0.395352" y1="-1.198921" x2="-0.381169" y2="-1.135469" stroke="red" stroke-width="0.020000"/>
<line x1="-0.381169" y1="-1.135469" x2="-0.367865" y2="-1.065726" stroke="red" stroke-width="0.020000"/>
<line x1="-0.367865" y1="-1.065726" x2="-0.355639" y2="-0.988539" stroke="red" stroke-width="0.020000"/>
<line x1="-0.355639" y1="-0.988539" x2="-0.344763" y2="-0.902447" stroke="red" stroke-width="0.020000"/>
<line x1="-0.344763" y1="-0.902447" x2="-0.326177" y2="-0.705821" stroke="red" stroke-width="0.020000"/>
<line x1="-0.326177" y1="-0.705821" x2="-0.307860" y2="-0.414689" stroke="red" stroke-width="0.020000"/>
<line x1="-0.307860" y1="-0.414689" x2="-0.299128" y2="-0.136828" stroke="red" stroke-width="0.020000"/>
<line x1="-0.299128" y1="-0.136828" x2="-0.299128" y2="0.136828" stroke="red" stroke-width="0.020000"/>
</svg>